<?xml version="1.0" encoding="UTF-8"?>
<svg version="1.1" xmlns="http://www.w3.org/2000/svg" width="380" height="380">
<path d="M0 0 C125.4 0 250.8 0 380 0 C380 125.4 380 250.8 380 380 C254.6 380 129.2 380 0 380 C0 254.6 0 129.2 0 0 Z " fill="#865889" transform="translate(0,0)"/>
<path d="M0 0 C125.4 0 250.8 0 380 0 C380 125.4 380 250.8 380 380 C254.6 380 129.2 380 0 380 C0 254.6 0 129.2 0 0 Z M179.71728516 19.13330078 C167.75539078 19.87540115 156.56934132 21.98131026 145.08789062 25.38720703 C143.22865623 25.93288972 141.3571258 26.43627437 139.484375 26.93359375 C120.25461963 32.26203582 101.81350201 43.83013094 87 57 C86.44570312 57.48871582 85.89140625 57.97743164 85.3203125 58.48095703 C77.45745617 65.44894134 70.34849857 72.58885695 64 81 C63.33742187 81.84691406 62.67484375 82.69382813 61.9921875 83.56640625 C37.75291455 115.45768498 27.13143697 156.53857839 31.94067383 196.21362305 C36.11561424 226.36977588 47.10343212 254.71678227 67 278 C67.88189516 279.08717551 68.76198857 280.17581415 69.640625 281.265625 C84.78031073 299.80038009 103.38144592 313.00644113 125 323 C125.68779541 323.32564941 126.37559082 323.65129883 127.08422852 323.98681641 C132.97623521 326.70882774 138.98249164 328.73887775 145.1875 330.625 C146.59612305 331.07359375 146.59612305 331.07359375 148.03320312 331.53125 C161.54661263 335.66670098 175.09595463 336.47283756 189.125 336.5 C189.95027191 336.50267883 190.77554382 336.50535767 191.62582397 336.50811768 C214.07625788 336.49244245 239.59524398 333.14671745 259 321 C260.17343184 320.3449778 261.35088224 319.69712684 262.53125 319.0546875 C298.79185117 299.20509486 328.86860437 268.36345415 340.93457031 227.86303711 C341.8782875 224.3979669 342.76559621 220.92442714 343.625 217.4375 C343.93058838 216.19967773 344.23617676 214.96185547 344.55102539 213.68652344 C346.77126157 204.4483132 348.46815573 195.4944052 349 186 C349.06960938 184.77796875 349.13921875 183.5559375 349.2109375 182.296875 C349.59896269 167.79070265 348.39269911 151.86550443 344 138 C343.5359375 136.18628906 343.5359375 136.18628906 343.0625 134.3359375 C332.71139024 94.91383833 304.83966717 60.75330437 269.86157227 40.28735352 C262.78613965 36.27375472 255.62194238 32.86047014 248 30 C246.62221743 29.42881557 245.24462789 28.85716537 243.8671875 28.28515625 C223.73477862 20.26245098 201.25875245 17.87537125 179.71728516 19.13330078 Z " fill="#010001" transform="translate(0,0)"/>
<path d="M0 0 C-0.75 6.75 -0.75 6.75 -3 9 C-3.99 9 -4.98 9 -6 9 C-6 9.66 -6 10.32 -6 11 C-6.86625 11.12375 -6.86625 11.12375 -7.75 11.25 C-10.1677051 11.8695627 -10.1677051 11.8695627 -12 14 C-15.7203537 17.7203537 -20.55272662 17.25836118 -25.58203125 17.53515625 C-26.68063728 17.59962196 -26.68063728 17.59962196 -27.80143738 17.66539001 C-29.34872177 17.75538251 -30.8961149 17.84352201 -32.44360352 17.92993164 C-34.79406197 18.06146817 -37.14409526 18.19918892 -39.49414062 18.33789062 C-41.00258299 18.42484736 -42.51104596 18.51144735 -44.01953125 18.59765625 C-45.06207817 18.65857201 -45.06207817 18.65857201 -46.12568665 18.72071838 C-50.4223709 18.95777123 -54.69722736 19.03605187 -59 19 C-59 19.66 -59 20.32 -59 21 C-60.65 21.33 -62.3 21.66 -64 22 C-64 22.66 -64 23.32 -64 24 C-64.66531738 24.02505615 -65.33063477 24.0501123 -66.01611328 24.07592773 C-69.05257487 24.19251136 -72.08877346 24.31495351 -75.125 24.4375 C-76.17171875 24.47681641 -77.2184375 24.51613281 -78.296875 24.55664062 C-84.21194667 24.78856429 -84.21194667 24.78856429 -90.078125 25.51953125 C-94.58254923 26.26023203 -99.06778014 26.22482199 -103.625 26.25 C-105.03652344 26.2809375 -105.03652344 26.2809375 -106.4765625 26.3125 C-107.3840625 26.31765625 -108.2915625 26.3228125 -109.2265625 26.328125 C-110.45753662 26.34214355 -110.45753662 26.34214355 -111.71337891 26.35644531 C-114.58199108 25.9092775 -115.93809339 25.02522202 -118 23 C-118.74396135 17.04830918 -118.74396135 17.04830918 -116.625 14.0625 C-115 13 -115 13 -113 13 C-113 12.01 -113 11.02 -113 10 C-109.91190305 8.23537317 -108.76687864 8 -105 8 C-105 7.34 -105 6.68 -105 6 C-101.32956754 3.55304503 -98.38323578 3.62835108 -94.125 3.5 C-89.05191567 3.33849732 -84.2009792 2.88539032 -79.19946289 1.98852539 C-71.43165894 0.77427413 -63.76040691 0.76488343 -55.92578125 0.83984375 C-54.42457978 0.84613237 -52.92337357 0.85136636 -51.42216492 0.85560608 C-47.51526924 0.86876185 -43.60853701 0.89314474 -39.70172119 0.92095947 C-33.41184216 0.96450417 -27.12191344 0.99377873 -20.83193016 1.0170002 C-18.64150032 1.02721219 -16.45119853 1.04424485 -14.26081848 1.06199646 C-12.28186836 1.07179283 -12.28186836 1.07179283 -10.26293945 1.08178711 C-9.09857864 1.09004013 -7.93421783 1.09829315 -6.73457336 1.10679626 C-4.12330992 1.00481576 -2.53028948 0 0 0 Z " fill="#B87A57" transform="translate(271,217)"/>
<path d="M0 0 C4.52081966 -0.02917237 9.04161488 -0.0468568 13.5625 -0.0625 C14.83931641 -0.07087891 16.11613281 -0.07925781 17.43164062 -0.08789062 C19.29272461 -0.09272461 19.29272461 -0.09272461 21.19140625 -0.09765625 C22.89598999 -0.10551147 22.89598999 -0.10551147 24.63500977 -0.11352539 C30.0318705 0.06854965 34.78606345 0.3822153 39.375 3.375 C40.04273438 3.79523438 40.71046875 4.21546875 41.3984375 4.6484375 C43.59948161 6.50590399 43.93554109 8.32442108 44.203125 11.12890625 C44.33289232 17.86599303 43.91122273 25.11836969 39.72265625 30.703125 C38.375 32.0625 38.375 32.0625 36 34 C35.67 34.33 35.34 34.66 35 35 C32.81360547 35.07258946 30.62499611 35.08373783 28.4375 35.0625 C26.64119141 35.04896484 26.64119141 35.04896484 24.80859375 35.03515625 C23.88175781 35.02355469 22.95492187 35.01195312 22 35 C22.2165625 34.38253906 22.433125 33.76507813 22.65625 33.12890625 C24.99613539 26.01175485 26.88935609 19.04811945 23.5625 11.9375 C21.29480501 9.13738966 19.74295396 8.95279275 16.12890625 8.2890625 C10.54407868 7.86439833 5.15269909 7.53033776 0.40234375 10.7734375 C-1.2929922 12.76752692 -2.63870337 14.77199547 -4 17 C-4.99 17.495 -4.99 17.495 -6 18 C-6.8374572 20.27897183 -6.8374572 20.27897183 -7.5 22.9375 C-8.78277886 27.78277886 -8.78277886 27.78277886 -11 30 C-11.33 31.32 -11.66 32.64 -12 34 C-28.335 32.515 -28.335 32.515 -45 31 C-46.23756087 27.28731738 -45.56501274 26.30534179 -44.125 22.75 C-42.40382623 18.4891922 -41.53412948 14.56851171 -41 10 C-40.06800781 9.92523438 -39.13601562 9.85046875 -38.17578125 9.7734375 C-31.1915597 9.05312345 -25.69799732 8.1564576 -19.375 4.875 C-12.82266845 1.52150857 -7.24210338 1.35994504 0 2 C0 1.34 0 0.68 0 0 Z " fill="#FAFBFA" transform="translate(258,156)"/>
<path d="M0 0 C0.495 0.495 0.495 0.495 1 1 C2.86524785 1.32192573 4.74006976 1.58869056 6.6171875 1.83203125 C7.7825 1.99123047 8.9478125 2.15042969 10.1484375 2.31445312 C12.59290512 2.64115084 15.0382071 2.96167753 17.484375 3.27539062 C26.69253217 4.54982376 38.05831078 6.24592401 45 13 C46.13096342 20.41409351 43.5895408 27.51927265 40 34 C36.5509821 36.55482808 33.16375388 36.2822884 29 36 C26.60221941 35.45886664 24.34161371 34.76460856 22 34 C21.94392578 32.89591797 21.94392578 32.89591797 21.88671875 31.76953125 C21.4559214 25.37514708 20.99708488 20.99708488 16.3125 16.3125 C15.879375 15.879375 15.44625 15.44625 15 15 C15 14.34 15 13.68 15 13 C8.16053329 11.56011227 0.36764068 10.60392497 -6 14 C-6 14.66 -6 15.32 -6 16 C-6.78375 16.515625 -7.5675 17.03125 -8.375 17.5625 C-11.99430198 20.92328041 -12.31892667 24.24265193 -13 29 C-25.98355461 26.71585613 -33.58179091 20.91354887 -42 11 C-42.5878125 10.33871094 -43.175625 9.67742187 -43.78125 8.99609375 C-44.60109375 8.06990234 -44.60109375 8.06990234 -45.4375 7.125 C-46.17806641 6.29355469 -46.17806641 6.29355469 -46.93359375 5.4453125 C-48 4 -48 4 -48 2 C-47.42032471 1.98018066 -46.84064941 1.96036133 -46.2434082 1.93994141 C-43.59934063 1.84427399 -40.9560183 1.73476547 -38.3125 1.625 C-36.94448242 1.57859375 -36.94448242 1.57859375 -35.54882812 1.53125 C-0.09215674 -0.01595021 -0.09215674 -0.01595021 0 0 Z " fill="#FAFBFB" transform="translate(170,151)"/>
<path d="M0 0 C0.99 0 1.98 0 3 0 C5.37372646 3.70894759 5.73298036 6.67541588 5 11 C3.10608254 13.01874383 1.07911275 14.66082426 -1.1015625 16.36328125 C-3.38468865 18.33165544 -4.03561316 20.18720506 -5 23 C-12.97724811 27.87113957 -25.36990791 26.32567375 -34.40625 26.60546875 C-46.35298794 26.35821177 -46.35298794 26.35821177 -57.0625 30.5 C-61.09879575 32.94065801 -64.35200661 33.40879082 -69.0390625 33.640625 C-69.72949142 33.67549011 -70.41992035 33.71035522 -71.13127136 33.74627686 C-79.31739799 34.1228329 -87.51104798 34.22163855 -95.70483398 34.24023438 C-98.35494958 34.25015897 -101.00435482 34.28141848 -103.65429688 34.3125 C-105.34895382 34.31901288 -107.04361617 34.32427003 -108.73828125 34.328125 C-109.52568192 34.3404718 -110.31308258 34.3528186 -111.12434387 34.36553955 C-116.49068996 34.34344591 -116.49068996 34.34344591 -118.984375 32.66186523 C-120.54024654 30.11599562 -120.52887796 27.7628699 -120.6875 24.8125 C-120.75324219 23.72582031 -120.81898438 22.63914063 -120.88671875 21.51953125 C-120.92410156 20.68808594 -120.96148437 19.85664063 -121 19 C-120.34 19 -119.68 19 -119 19 C-118.89429688 18.41605469 -118.78859375 17.83210938 -118.6796875 17.23046875 C-117.59919774 13.68472362 -115.76104407 11.85307995 -112.96484375 9.4765625 C-106.90128754 6.45676771 -99.86066425 7.15724317 -93.21289062 7.07568359 C-89.62443997 6.95295415 -86.20789564 6.2857832 -82.71484375 5.5 C-73.76943894 3.85250099 -64.81750217 3.8785495 -55.75 3.9375 C-54.40145037 3.94191528 -53.05289865 3.94572926 -51.7043457 3.94897461 C-47.46953292 3.96029339 -43.23477739 3.97958796 -39 4 C-34.0611615 4.02363413 -29.12235333 4.04396414 -24.18347168 4.05593872 C-22.21246604 4.06241793 -20.24148349 4.07499313 -18.27050781 4.08764648 C-17.08166992 4.09094971 -15.89283203 4.09425293 -14.66796875 4.09765625 C-13.61891357 4.10289307 -12.5698584 4.10812988 -11.48901367 4.11352539 C-8.99913504 4.16873259 -8.99913504 4.16873259 -7 3 C-4.6670134 2.95977609 -2.33293334 2.95679753 0 3 C0 2.01 0 1.02 0 0 Z M-4 7 C-6.08623411 7.08147597 -8.17516741 7.09658529 -10.26293945 7.08178711 C-11.58223953 7.0752562 -12.90153961 7.06872528 -14.26081848 7.06199646 C-15.32339339 7.05338498 -15.32339339 7.05338498 -16.40743446 7.04459953 C-18.63329867 7.02718716 -20.85909069 7.01689993 -23.08500671 7.00868225 C-29.41554618 6.98427152 -35.74599027 6.94912246 -42.07641602 6.90405273 C-45.94963621 6.87698135 -49.82279875 6.86012301 -53.69609642 6.84918404 C-55.16185806 6.84304387 -56.62760962 6.83312878 -58.09331703 6.81910515 C-66.28183288 6.74157589 -74.16262581 7.08532679 -82.24452209 8.53456116 C-86.91662638 9.32374506 -91.60079994 9.42391596 -96.328125 9.56640625 C-100.04870495 9.72429064 -101.82663008 9.88442005 -105 12 C-105 12.66 -105 13.32 -105 14 C-106.1446875 14.2165625 -106.1446875 14.2165625 -107.3125 14.4375 C-110.08172908 14.9632594 -110.08172908 14.9632594 -113 16 C-113 16.99 -113 17.98 -113 19 C-113.639375 19.309375 -114.27875 19.61875 -114.9375 19.9375 C-116.93610821 20.8345163 -116.93610821 20.8345163 -118 22 C-118.41692853 25.41600593 -118.41692853 25.41600593 -118 29 C-115.94391304 31.03800506 -114.58552591 31.90872648 -111.71337891 32.35644531 C-110.48240479 32.34242676 -110.48240479 32.34242676 -109.2265625 32.328125 C-108.3190625 32.32296875 -107.4115625 32.3178125 -106.4765625 32.3125 C-105.53554687 32.291875 -104.59453125 32.27125 -103.625 32.25 C-102.69171875 32.24484375 -101.7584375 32.2396875 -100.796875 32.234375 C-96.06828144 32.1807932 -91.66420262 31.78723217 -87 31 C-83.04474215 30.73434283 -79.08616074 30.58628744 -75.125 30.4375 C-73.52011719 30.37272461 -73.52011719 30.37272461 -71.8828125 30.30664062 C-69.25532246 30.20107183 -66.62774578 30.09896209 -64 30 C-64 29.34 -64 28.68 -64 28 C-62.35 27.67 -60.7 27.34 -59 27 C-59 26.34 -59 25.68 -59 25 C-56.84912568 24.89850292 -54.69824915 24.7970527 -52.54736328 24.69580078 C-50.66544103 24.60612287 -48.78360497 24.51461929 -46.90185547 24.42138672 C-42.06790598 24.1833605 -37.23592391 23.96805965 -32.3984375 23.81640625 C-31.51188477 23.78409912 -30.62533203 23.75179199 -29.71191406 23.71850586 C-28.02932854 23.6576876 -26.34632867 23.60716253 -24.66308594 23.56860352 C-19.44467183 23.36358662 -15.6363475 22.45738523 -11 20 C-10.67 19.34 -10.34 18.68 -10 18 C-7.9375 17.375 -7.9375 17.375 -6 17 C-6 16.34 -6 15.68 -6 15 C-5.38125 14.9175 -4.7625 14.835 -4.125 14.75 C-1.86719166 14.1870503 -1.86719166 14.1870503 -0.75 12.1875 C0.21621622 9.75478604 0.21621622 9.75478604 0 6 C-2.0745356 5.8509288 -2.0745356 5.8509288 -4 7 Z " fill="#587F7D" transform="translate(271,211)"/>
<path d="M0 0 C2.77954736 0.59443643 4.15671098 1.66508516 5.95068359 3.84130859 C8.84902371 9.25662828 8.76251776 14.15345897 7.19677734 19.97412109 C6.49112936 22.14901682 5.73198967 24.27922544 4.88818359 26.40380859 C4.22818359 26.40380859 3.56818359 26.40380859 2.88818359 26.40380859 C2.88818359 27.06380859 2.88818359 27.72380859 2.88818359 28.40380859 C-7.67181641 28.07380859 -18.23181641 27.74380859 -29.11181641 27.40380859 C-29.11181641 21.62066593 -28.48720253 19.42866386 -26.11181641 14.40380859 C-25.82306641 13.53755859 -25.53431641 12.67130859 -25.23681641 11.77880859 C-23.74696008 8.63355635 -21.65098352 6.76160663 -19.11181641 4.40380859 C-18.57041016 3.70900391 -18.02900391 3.01419922 -17.47119141 2.29833984 C-12.81041497 -1.44417103 -5.73404879 -0.61979181 0 0 Z " fill="#0E0E0E" transform="translate(276.11181640625,163.59619140625)"/>
<path d="M0 0 C4.09280147 2.13941895 6.81042231 4.15426594 8.75 8.4375 C9.24940751 13.49400102 9.101742 18.37632341 8.75 23.4375 C6.95866022 23.49141993 5.16686101 23.53025571 3.375 23.5625 C2.37726563 23.58570313 1.37953125 23.60890625 0.3515625 23.6328125 C-2.25 23.4375 -2.25 23.4375 -4.25 21.4375 C-6.56765729 20.71822705 -8.90095874 20.0465107 -11.25 19.4375 C-11.25 18.1175 -11.25 16.7975 -11.25 15.4375 C-12.24 15.4375 -13.23 15.4375 -14.25 15.4375 C-13.92 16.7575 -13.59 18.0775 -13.25 19.4375 C-16.88 19.4375 -20.51 19.4375 -24.25 19.4375 C-24.74034175 9.14032318 -24.74034175 9.14032318 -22.375 5.75 C-20.25 4.4375 -20.25 4.4375 -18.25 4.4375 C-18.25 3.7775 -18.25 3.1175 -18.25 2.4375 C-13.02615615 -2.08983134 -6.38084103 -1.10437633 0 0 Z " fill="#0C0C0C" transform="translate(182.25,162.5625)"/>
<path d="M0 0 C1.39120471 0.00015906 2.78241534 0.00585033 4.17358398 0.01586914 C5.27016579 0.01799156 5.27016579 0.01799156 6.38890076 0.02015686 C8.73253406 0.02577131 11.07607313 0.03832617 13.41967773 0.05102539 C15.00496282 0.05603853 16.59024939 0.06060176 18.17553711 0.06469727 C22.06945383 0.07574542 25.96329979 0.09301967 29.85717773 0.11352539 C30.35217773 1.10352539 30.35217773 1.10352539 30.85717773 2.11352539 C30.27967773 2.19602539 29.70217773 2.27852539 29.10717773 2.36352539 C26.68947264 2.98308809 26.68947264 2.98308809 24.85717773 5.11352539 C21.82095272 8.14975041 18.71019463 8.22214794 14.54858398 8.42993164 C13.72455078 8.47190674 12.90051758 8.51388184 12.05151367 8.55712891 C10.74875488 8.61598267 10.74875488 8.61598267 9.41967773 8.67602539 C8.53183594 8.71848389 7.64399414 8.76094238 6.72924805 8.8046875 C-0.23361916 9.11802913 -7.1727485 9.22799741 -14.14282227 9.11352539 C-13.48282227 8.78352539 -12.82282227 8.45352539 -12.14282227 8.11352539 C-12.14282227 7.45352539 -12.14282227 6.79352539 -12.14282227 6.11352539 C-18.41282227 6.11352539 -24.68282227 6.11352539 -31.14282227 6.11352539 C-31.14282227 6.77352539 -31.14282227 7.43352539 -31.14282227 8.11352539 C-31.89901855 8.13858154 -32.65521484 8.1636377 -33.43432617 8.18945312 C-36.87897686 8.30589425 -40.32338634 8.42840201 -43.76782227 8.55102539 C-45.5525293 8.61 -45.5525293 8.61 -47.37329102 8.67016602 C-49.10385742 8.73300781 -49.10385742 8.73300781 -50.86938477 8.79711914 C-52.45614014 8.85210571 -52.45614014 8.85210571 -54.07495117 8.90820312 C-57.152095 9.11414598 -60.11150317 9.5553336 -63.14282227 10.11352539 C-63.14282227 9.12352539 -63.14282227 8.13352539 -63.14282227 7.11352539 C-58.34858913 6.11199039 -53.66841068 5.95238428 -48.79296875 5.82250977 C-39.68585547 5.57970988 -31.25041012 5.05199596 -22.40844727 2.80883789 C-17.31151974 1.72360691 -12.22633785 1.54878506 -7.02954102 1.32446289 C-3.62391216 1.07560774 -3.50036942 0.12644075 0 0 Z " fill="#B47A59" transform="translate(234.142822265625,225.886474609375)"/>
<path d="M0 0 C3.50910665 1.16970222 3.78174698 1.85048928 5.5625 4.9375 C6.94197027 7.30537576 8.04971701 9.04971701 10 11 C10.35599555 14.0192028 10.44292779 17.01752315 10.55859375 20.0546875 C11.16912585 25.51165583 12.58042204 30.70394505 14 36 C18.83389935 36.14545024 23.66787995 36.28769214 28.50195312 36.42724609 C30.13869636 36.47491512 31.77541643 36.52338807 33.41210938 36.57275391 C41.85698267 36.82693007 50.30107073 37.04941828 58.75 37.09375 C59.98234375 37.10083984 61.2146875 37.10792969 62.484375 37.11523438 C68.67036807 37.27868829 68.67036807 37.27868829 74 35 C76.49238569 34.87346802 78.94470441 34.81480175 81.4375 34.8125 C82.13166016 34.80025391 82.82582031 34.78800781 83.54101562 34.77539062 C85.36220901 34.77010158 87.1828692 34.87830793 89 35 C89.66 35.66 90.32 36.32 91 37 C76.96011828 38.34428203 63.1062224 39.36960525 49 39 C48.34449158 38.98326233 47.68898315 38.96652466 47.01361084 38.94927979 C36.00800515 38.66752404 25.00378744 38.3450729 14 38 C14.99 40.97 14.99 40.97 16 44 C16.66 44 17.32 44 18 44 C18.45439453 44.92232422 18.45439453 44.92232422 18.91796875 45.86328125 C21.38022034 50.61353278 23.03281562 53.58736759 28 56 C28 56.66 28 57.32 28 58 C27.01 58.495 27.01 58.495 26 59 C26.09539062 59.98742187 26.19078125 60.97484375 26.2890625 61.9921875 C26.39992188 63.27351563 26.51078125 64.55484375 26.625 65.875 C26.74101562 67.15117187 26.85703125 68.42734375 26.9765625 69.7421875 C26.98816406 71.35480469 26.98816406 71.35480469 27 73 C26.34 73.66 25.68 74.32 25 75 C24.34 74.34 23.68 73.68 23 73 C21.01643517 72.28591666 19.01684563 71.61382258 17 71 C17 70.34 17 69.68 17 69 C15.02 68.01 15.02 68.01 13 67 C16.8063457 67.67170806 20.35206816 68.72746564 24 70 C23.80648565 59.60300152 21.29999488 53.40715124 15.1875 45.1875 C13 42 13 42 13 38 C11.83597656 38.03480469 11.83597656 38.03480469 10.6484375 38.0703125 C-9.19630485 38.40184758 -9.19630485 38.40184758 -16 35 C-17.35845193 34.91097507 -18.72115974 34.88239868 -20.08251953 34.88647461 C-20.92324005 34.88655014 -21.76396057 34.88662567 -22.63015747 34.88670349 C-23.53853363 34.89186478 -24.44690979 34.89702606 -25.3828125 34.90234375 C-26.31221649 34.9037587 -27.24162048 34.90517365 -28.19918823 34.90663147 C-31.17449124 34.91223947 -34.14971964 34.92479332 -37.125 34.9375 C-39.13932183 34.94251397 -41.15364484 34.94707705 -43.16796875 34.95117188 C-48.11200802 34.9622115 -53.05599135 34.97948151 -58 35 C-57.67 34.01 -57.34 33.02 -57 32 C-16.06411736 31.29289599 -16.06411736 31.29289599 0 35 C0.33 35.33 0.66 35.66 1 36 C2.84891946 36.23363881 4.70488031 36.41303635 6.5625 36.5625 C7.57441406 36.64628906 8.58632812 36.73007813 9.62890625 36.81640625 C10.80259766 36.90728516 10.80259766 36.90728516 12 37 C11.319375 35.2675 11.319375 35.2675 10.625 33.5 C9.31910784 29.70812047 8.76657547 26.14126288 8.42871094 22.14892578 C7.79378362 14.73623613 6.31729734 9.66776619 1.4609375 3.8203125 C0 2 0 2 0 0 Z " fill="#3E2343" transform="translate(192,90)"/>
<path d="M0 0 C1.59996496 0.00186874 3.1999305 0.00329048 4.79989624 0.00428772 C8.97879663 0.00807704 13.15766139 0.01787604 17.33654785 0.0289917 C21.61368325 0.03928356 25.8908245 0.04380188 30.16796875 0.04882812 C38.53647455 0.05950208 46.90495157 0.07653459 55.2734375 0.09765625 C55.7684375 3.06765625 55.7684375 3.06765625 56.2734375 6.09765625 C55.2834375 6.42765625 54.2934375 6.75765625 53.2734375 7.09765625 C52.9434375 7.75765625 52.6134375 8.41765625 52.2734375 9.09765625 C52.6034375 6.78765625 52.9334375 4.47765625 53.2734375 2.09765625 C52.48422157 2.58661377 52.48422157 2.58661377 51.67906189 3.08544922 C48.57814419 4.39021264 46.14707447 4.32334102 42.78344727 4.29296875 C41.46429825 4.2863623 40.14514923 4.27975586 38.786026 4.27294922 C37.73094188 4.26059235 37.73094188 4.26059235 36.65454292 4.24798584 C34.43688735 4.22233286 32.21947301 4.20939272 30.00169373 4.19970703 C24.4860497 4.17303009 18.97063118 4.12497944 13.45513916 4.0769043 C8.80325983 4.03709648 4.15147127 4.00594256 -0.50053596 3.98577881 C-2.6634012 3.97300618 -4.82588706 3.94797956 -6.9886322 3.92236328 C-14.47409051 3.86761365 -21.62609993 4.3134749 -29.00370789 5.64204407 C-32.76008457 6.27059433 -36.29302833 6.32764497 -40.1015625 6.28515625 C-42.03128906 6.27548828 -42.03128906 6.27548828 -44 6.265625 C-47.66142338 6.10059229 -51.11377769 5.68111633 -54.7265625 5.09765625 C-54.7265625 4.76765625 -54.7265625 4.43765625 -54.7265625 4.09765625 C-53.07720703 4.02417969 -53.07720703 4.02417969 -51.39453125 3.94921875 C-43.9966673 3.5869976 -36.76826102 3.19085936 -29.51171875 1.59765625 C-19.72852885 -0.15865274 -9.90035364 -0.0342305 0 0 Z " fill="#5A7A80" transform="translate(217.7265625,214.90234375)"/>
<path d="M0 0 C1.20591797 -0.00386719 2.41183594 -0.00773438 3.65429688 -0.01171875 C22.13178957 0.0084642 22.13178957 0.0084642 27.3125 3.4375 C28.28703125 4.05044922 28.28703125 4.05044922 29.28125 4.67578125 C31.8260296 7.08423337 31.76881262 9.4249859 31.98046875 12.81640625 C31.98691406 13.76386719 31.99335938 14.71132812 32 15.6875 C32.01417969 16.63753906 32.02835937 17.58757812 32.04296875 18.56640625 C31.8125 21.125 31.8125 21.125 29.8125 24.125 C29.75191406 23.22136719 29.69132812 22.31773437 29.62890625 21.38671875 C29.54511719 20.20722656 29.46132813 19.02773437 29.375 17.8125 C29.29378906 16.64074219 29.21257812 15.46898437 29.12890625 14.26171875 C28.9257629 11.09909042 28.9257629 11.09909042 27.8125 8.125 C21.14984539 3.59439486 15.00810159 3.0667936 7.00390625 2.80859375 C5.76318359 2.76669922 4.52246094 2.72480469 3.24414062 2.68164062 C1.96732422 2.64232422 0.69050781 2.60300781 -0.625 2.5625 C-1.92888672 2.51931641 -3.23277344 2.47613281 -4.57617188 2.43164062 C-7.77985316 2.32602476 -10.98360611 2.22391899 -14.1875 2.125 C-14.1875 2.785 -14.1875 3.445 -14.1875 4.125 C-14.97511719 4.12757813 -15.76273437 4.13015625 -16.57421875 4.1328125 C-24.52580627 4.41511738 -30.34159467 6.11523904 -37.41015625 9.75 C-41.76923287 11.90808013 -45.08673653 12.24524718 -49.9375 12.1875 C-50.92234375 12.17847656 -51.9071875 12.16945312 -52.921875 12.16015625 C-53.66953125 12.14855469 -54.4171875 12.13695312 -55.1875 12.125 C-55.06375 13.5171875 -55.06375 13.5171875 -54.9375 14.9375 C-54.89943769 19.58110157 -56.61914783 23.50675236 -58.3125 27.76953125 C-59.30357519 30.0186804 -59.30357519 30.0186804 -59.1875 32.125 C-55.5575 32.455 -51.9275 32.785 -48.1875 33.125 C-48.1875 33.455 -48.1875 33.785 -48.1875 34.125 C-56.1075 34.125 -64.0275 34.125 -72.1875 34.125 C-72.1875 33.795 -72.1875 33.465 -72.1875 33.125 C-68.8875 32.465 -65.5875 31.805 -62.1875 31.125 C-61.50625294 29.12991933 -60.84322791 27.12861307 -60.1875 25.125 C-59.81625 24.01125 -59.445 22.8975 -59.0625 21.75 C-57.99262248 17.31765026 -57.07044187 12.35911625 -59.1875 8.125 C-58.6925 8.434375 -58.1975 8.74375 -57.6875 9.0625 C-54.20763219 10.54144382 -50.94721491 10.74902851 -47.1875 11.125 C-46.7234375 10.1659375 -46.7234375 10.1659375 -46.25 9.1875 C-45.1875 7.125 -45.1875 7.125 -44.1875 6.125 C-40.96030105 5.62359903 -37.72520521 5.22358323 -34.484375 4.8203125 C-31.20467976 4.32934463 -31.20467976 4.32934463 -28.82055664 2.62402344 C-20.97619517 -1.84184392 -8.7804599 -0.02843106 0 0 Z " fill="#747388" transform="translate(272.1875,153.875)"/>
<path d="M0 0 C0.99 0 1.98 0 3 0 C5.37372646 3.70894759 5.73298036 6.67541588 5 11 C3.10608254 13.01874383 1.07911275 14.66082426 -1.1015625 16.36328125 C-3.38468865 18.33165544 -4.03561316 20.18720506 -5 23 C-12.97724811 27.87113957 -25.36990791 26.32567375 -34.40625 26.60546875 C-44.82203086 26.14135796 -44.82203086 26.14135796 -54 29 C-55.66617115 29.04063832 -57.33388095 29.042721 -59 29 C-58.34 28.67 -57.68 28.34 -57 28 C-57 27.34 -57 26.68 -57 26 C-55.35 26 -53.7 26 -52 26 C-52 25.34 -52 24.68 -52 24 C-50.50218994 23.92483154 -50.50218994 23.92483154 -48.97412109 23.84814453 C-45.2500154 23.65901583 -41.52657119 23.45882036 -37.80322266 23.25537109 C-36.19530777 23.16904226 -34.58723131 23.08566775 -32.97900391 23.00537109 C-30.65998767 22.8890613 -28.34177089 22.76194429 -26.0234375 22.6328125 C-24.95432632 22.58267502 -24.95432632 22.58267502 -23.86361694 22.53152466 C-19.61254808 22.28223922 -15.91364496 21.71244729 -12 20 C-11.34 19.01 -10.68 18.02 -10 17 C-8.68 17 -7.36 17 -6 17 C-6 16.34 -6 15.68 -6 15 C-4.02 14.34 -2.04 13.68 0 13 C0 12.34 0 11.68 0 11 C0.66 10.67 1.32 10.34 2 10 C2 8.02 2 6.04 2 4 C-1.63 4.33 -5.26 4.66 -9 5 C-7 3 -7 3 -3.375 2.875 C-1.704375 2.936875 -1.704375 2.936875 0 3 C0 2.01 0 1.02 0 0 Z " fill="#588489" transform="translate(271,211)"/>
<path d="M0 0 C1.39120471 0.00015906 2.78241534 0.00585033 4.17358398 0.01586914 C5.27016579 0.01799156 5.27016579 0.01799156 6.38890076 0.02015686 C8.73253406 0.02577131 11.07607313 0.03832617 13.41967773 0.05102539 C15.00496282 0.05603853 16.59024939 0.06060176 18.17553711 0.06469727 C22.06945383 0.07574542 25.96329979 0.09301967 29.85717773 0.11352539 C30.35217773 1.10352539 30.35217773 1.10352539 30.85717773 2.11352539 C29.90875 2.10305176 28.96032227 2.09257812 27.9831543 2.08178711 C24.45708782 2.04765831 20.93119744 2.02260371 17.4050293 2.00366211 C15.8802615 1.99361795 14.3555129 1.97998008 12.83081055 1.96264648 C10.63642635 1.93832802 8.44229732 1.9270265 6.24780273 1.91821289 C4.928125 1.90773926 3.60844727 1.89726562 2.2487793 1.88647461 C-0.96262772 2.10146227 -2.43156304 2.55472065 -5.14282227 4.11352539 C-7.70925271 4.38829775 -10.19563277 4.57536143 -12.76782227 4.67602539 C-14.19758354 4.7474809 -15.62727252 4.8203978 -17.05688477 4.89477539 C-18.0995752 4.94698242 -18.0995752 4.94698242 -19.16333008 5.00024414 C-23.16964336 5.22951515 -27.15625515 5.66311997 -31.14282227 6.11352539 C-31.14282227 6.77352539 -31.14282227 7.43352539 -31.14282227 8.11352539 C-31.89901855 8.13858154 -32.65521484 8.1636377 -33.43432617 8.18945312 C-36.87897686 8.30589425 -40.32338634 8.42840201 -43.76782227 8.55102539 C-45.5525293 8.61 -45.5525293 8.61 -47.37329102 8.67016602 C-49.10385742 8.73300781 -49.10385742 8.73300781 -50.86938477 8.79711914 C-52.45614014 8.85210571 -52.45614014 8.85210571 -54.07495117 8.90820312 C-57.152095 9.11414598 -60.11150317 9.5553336 -63.14282227 10.11352539 C-63.14282227 9.12352539 -63.14282227 8.13352539 -63.14282227 7.11352539 C-58.34858913 6.11199039 -53.66841068 5.95238428 -48.79296875 5.82250977 C-39.68585547 5.57970988 -31.25041012 5.05199596 -22.40844727 2.80883789 C-17.31151974 1.72360691 -12.22633785 1.54878506 -7.02954102 1.32446289 C-3.62391216 1.07560774 -3.50036942 0.12644075 0 0 Z " fill="#96513E" transform="translate(234.142822265625,225.886474609375)"/>
<path d="M0 0 C1.09707275 -0.01788574 2.19414551 -0.03577148 3.32446289 -0.05419922 C10.72963875 -0.04633512 17.82002126 0.72572614 24.8125 3.3125 C25.3075 4.3025 25.3075 4.3025 25.8125 5.3125 C20.37437895 5.56543586 20.37437895 5.56543586 17.6105957 4.32128906 C13.97099472 3.00911462 10.54801239 3.02589189 6.73046875 3.046875 C5.95745926 3.04496155 5.18444977 3.0430481 4.38801575 3.04107666 C2.75663934 3.03971955 1.12525196 3.0433828 -0.50610352 3.05175781 C-2.98153455 3.06242046 -5.45623266 3.05186931 -7.93164062 3.0390625 C-9.52343908 3.04038503 -11.11523709 3.04294936 -12.70703125 3.046875 C-13.43751175 3.04282654 -14.16799225 3.03877808 -14.92060852 3.03460693 C-19.97748116 3.07989096 -24.31103268 3.97113979 -29.1875 5.3125 C-31.35091317 5.60820016 -33.51768956 5.88062778 -35.6875 6.125 C-44.19270271 7.38649009 -49.07524262 10.43061507 -54.1875 17.3125 C-54.8475 17.3125 -55.5075 17.3125 -56.1875 17.3125 C-53.37133346 10.40009122 -47.63367292 6.69861299 -41.10546875 3.60546875 C-28.5841258 -1.06401069 -13.14399192 0.14380934 0 0 Z " fill="#523457" transform="translate(279.1875,147.6875)"/>
<path d="M0 0 C1.20591797 -0.00386719 2.41183594 -0.00773438 3.65429688 -0.01171875 C22.13178957 0.0084642 22.13178957 0.0084642 27.3125 3.4375 C28.28703125 4.05044922 28.28703125 4.05044922 29.28125 4.67578125 C31.8260296 7.08423337 31.76881262 9.4249859 31.98046875 12.81640625 C31.99013672 14.23759766 31.99013672 14.23759766 32 15.6875 C32.01417969 16.63753906 32.02835937 17.58757812 32.04296875 18.56640625 C31.8125 21.125 31.8125 21.125 29.8125 24.125 C29.75191406 23.22136719 29.69132812 22.31773437 29.62890625 21.38671875 C29.54511719 20.20722656 29.46132813 19.02773437 29.375 17.8125 C29.29378906 16.64074219 29.21257812 15.46898437 29.12890625 14.26171875 C28.9257629 11.09909042 28.9257629 11.09909042 27.8125 8.125 C20.39252275 3.07941547 13.12948885 2.97350128 4.37890625 3.02734375 C3.50096909 3.0287587 2.62303192 3.03017365 1.7184906 3.03163147 C-1.06270882 3.03719179 -3.84382526 3.04973679 -6.625 3.0625 C-8.52018112 3.06752013 -10.41536352 3.07208214 -12.31054688 3.07617188 C-16.93622948 3.0871482 -21.56185071 3.10438518 -26.1875 3.125 C-26.1875 2.465 -26.1875 1.805 -26.1875 1.125 C-17.44119346 0.24323893 -8.78749241 -0.02845383 0 0 Z " fill="#677383" transform="translate(272.1875,153.875)"/>
<path d="M0 0 C0.66 0 1.32 0 2 0 C1.796875 1.8359375 1.796875 1.8359375 1 4 C-1.109375 5.4140625 -1.109375 5.4140625 -3.75 6.625 C-4.61109375 7.02976563 -5.4721875 7.43453125 -6.359375 7.8515625 C-7.23078125 8.23054687 -8.1021875 8.60953125 -9 9 C-9.73089844 9.35578125 -10.46179688 9.7115625 -11.21484375 10.078125 C-15.34721213 11.44592155 -19.49016921 11.74752421 -23.8125 12.125 C-24.7401416 12.2084668 -25.6677832 12.29193359 -26.62353516 12.37792969 C-48.10955803 14.18720125 -48.10955803 14.18720125 -58 11 C-58 10.34 -58 9.68 -58 9 C-56.90909058 9.24230347 -56.90909058 9.24230347 -55.79614258 9.48950195 C-41.14786175 12.16387157 -21.52452775 11.24208973 -8 5 C-6.70833333 4.47916667 -5.41666667 3.95833333 -4.125 3.4375 C-0.91781106 2.35702671 -0.91781106 2.35702671 0 0 Z " fill="#553458" transform="translate(211,188)"/>
<path d="M0 0 C-5.41114344 5.41114344 -20.10007459 3.37924543 -27.40625 3.60546875 C-37.82203086 3.14135796 -37.82203086 3.14135796 -47 6 C-48.66617115 6.04063832 -50.33388095 6.042721 -52 6 C-51.34 5.67 -50.68 5.34 -50 5 C-50 4.34 -50 3.68 -50 3 C-48.35 3 -46.7 3 -45 3 C-45 2.34 -45 1.68 -45 1 C-43.47246094 0.96241577 -43.47246094 0.96241577 -41.9140625 0.92407227 C-38.10454587 0.82928342 -34.29518154 0.72924282 -30.48583984 0.62768555 C-28.84297266 0.58460506 -27.20006841 0.54291343 -25.55712891 0.50268555 C-23.18380603 0.44432515 -20.81066521 0.38082725 -18.4375 0.31640625 C-17.71320801 0.29969376 -16.98891602 0.28298126 -16.24267578 0.26576233 C-12.65016248 0.16341807 -9.15846664 -0.08240087 -5.59765625 -0.58227539 C-2 -1 -2 -1 0 0 Z " fill="#47869B" transform="translate(264,234)"/>
<path d="M0 0 C1.32 0 2.64 0 4 0 C5.39712274 1.95597184 6.71927629 3.9659094 8 6 C9.05698632 7.10905461 10.14094539 8.19301368 11.25 9.25 C12.1575 10.1575 13.065 11.065 14 12 C14 12.66 14 13.32 14 14 C14.99 14.33 15.98 14.66 17 15 C18.0209375 16.11375 18.0209375 16.11375 19.0625 17.25 C24.24474965 22.65143845 31.86254558 25.29321742 39 27 C39 27.66 39 28.32 39 29 C36.03 29 33.06 29 30 29 C30 28.34 30 27.68 30 27 C29.01 27 28.02 27 27 27 C27 26.34 27 25.68 27 25 C26.13375 24.773125 25.2675 24.54625 24.375 24.3125 C20.33426745 22.74110401 18.12802891 20.97907516 15 18 C15 17.34 15 16.68 15 16 C14.01 16 13.02 16 12 16 C8 10.74285714 8 10.74285714 8 8 C7.34 8 6.68 8 6 8 C5.7525 7.195625 5.505 6.39125 5.25 5.5625 C4.27761141 2.828919 4.27761141 2.828919 1.875 2.1875 C1.25625 2.125625 0.6375 2.06375 0 2 C0 1.34 0 0.68 0 0 Z " fill="#74828F" transform="translate(118,153)"/>
<path d="M0 0 C0.33 0 0.66 0 1 0 C1 3.63 1 7.26 1 11 C1.99 11 2.98 11 4 11 C4 11.66 4 12.32 4 13 C-1.59775505 13.97352262 -7.32562999 14.61204357 -13 14 C-13.66 13.34 -14.32 12.68 -15 12 C-17.56916657 11.69400937 -20.04758384 11.48912913 -22.625 11.375 C-23.33140625 11.33632812 -24.0378125 11.29765625 -24.765625 11.2578125 C-26.50998524 11.16352276 -28.25495691 11.08067109 -30 11 C-30.33 9.68 -30.66 8.36 -31 7 C-28.03 7.33 -25.06 7.66 -22 8 C-22.33 6.68 -22.66 5.36 -23 4 C-22.01 4 -21.02 4 -20 4 C-20 5.32 -20 6.64 -20 8 C-18.88625 8.12375 -17.7725 8.2475 -16.625 8.375 C-13 9 -13 9 -11 11 C-8.33757179 11.46290221 -8.33757179 11.46290221 -5.375 11.625 C-3.60125 11.74875 -1.8275 11.8725 0 12 C0 8.04 0 4.08 0 0 Z " fill="#64707C" transform="translate(191,174)"/>
<path d="M0 0 C0.556875 0.15339844 1.11375 0.30679688 1.6875 0.46484375 C0.6975 1.94984375 0.6975 1.94984375 -0.3125 3.46484375 C-0.9725 3.46484375 -1.6325 3.46484375 -2.3125 3.46484375 C-2.3125 4.12484375 -2.3125 4.78484375 -2.3125 5.46484375 C-5.21850261 6.72149353 -7.10854584 7.46484375 -10.3125 7.46484375 C-10.3125 8.45484375 -10.3125 9.44484375 -10.3125 10.46484375 C-13.40059695 12.22947058 -14.54562136 12.46484375 -18.3125 12.46484375 C-18.3125 11.80484375 -18.3125 11.14484375 -18.3125 10.46484375 C-17.6525 10.46484375 -16.9925 10.46484375 -16.3125 10.46484375 C-16.17328125 9.59279297 -16.17328125 9.59279297 -16.03125 8.703125 C-13.65597698 1.30621499 -7.11417733 -1.45408016 0 0 Z " fill="#5E8997" transform="translate(168.3125,219.53515625)"/>
<path d="M0 0 C0.495 2.97 0.495 2.97 1 6 C0.01 6.33 -0.98 6.66 -2 7 C-2.33 7.66 -2.66 8.32 -3 9 C-2.67 6.69 -2.34 4.38 -2 2 C-2.54271545 2.32531708 -3.08543091 2.65063416 -3.64459229 2.98580933 C-6.49499309 4.21313396 -8.58616244 4.24076919 -11.68652344 4.22705078 C-12.82740417 4.22689972 -13.96828491 4.22674866 -15.14373779 4.22659302 C-16.36989807 4.21627045 -17.59605835 4.20594788 -18.859375 4.1953125 C-20.11888977 4.1924826 -21.37840454 4.18965271 -22.67608643 4.18673706 C-26.01673902 4.17744121 -29.35711669 4.15948583 -32.69769287 4.1373291 C-36.10963572 4.11683208 -39.52160702 4.10772712 -42.93359375 4.09765625 C-49.62247168 4.07559907 -56.31121997 4.04212367 -63 4 C-63 3.67 -63 3.34 -63 3 C-62.31761765 2.99191315 -61.63523529 2.98382629 -60.93217468 2.97549438 C-53.8433436 2.8895772 -46.75479631 2.79007931 -39.66625977 2.68261719 C-37.01917275 2.64428421 -34.37203287 2.60943906 -31.72485352 2.578125 C-27.92444944 2.53256855 -24.12441068 2.47455803 -20.32421875 2.4140625 C-18.54285774 2.39673569 -18.54285774 2.39673569 -16.72550964 2.37905884 C-15.62459488 2.35918915 -14.52368011 2.33931946 -13.3894043 2.31884766 C-12.41899704 2.30552399 -11.44858978 2.29220032 -10.44877625 2.2784729 C-6.39688654 1.8176952 -4.37144582 -0.23629437 0 0 Z " fill="#827F6C" transform="translate(273,215)"/>
<path d="M0 0 C4.95 0 9.9 0 15 0 C15 0.66 15 1.32 15 2 C11.13198238 4.57867841 8.07530474 4.15753069 3.61328125 3.9765625 C2.79627243 3.95153656 1.97926361 3.92651062 1.13749695 3.90072632 C-1.47126037 3.81857276 -4.07925532 3.72196612 -6.6875 3.625 C-8.45634909 3.56675563 -10.22522945 3.50945245 -11.99414062 3.453125 C-16.32986534 3.31300101 -20.66496188 3.15991319 -25 3 C-25 2.34 -25 1.68 -25 1 C-21.3958502 0.97099545 -17.79173038 0.95319982 -14.1875 0.9375 C-13.16333984 0.92912109 -12.13917969 0.92074219 -11.08398438 0.91210938 C-9.60961914 0.90727539 -9.60961914 0.90727539 -8.10546875 0.90234375 C-7.19949951 0.89710693 -6.29353027 0.89187012 -5.36010742 0.88647461 C-3 1 -3 1 0 2 C0 1.34 0 0.68 0 0 Z " fill="#6E6E86" transform="translate(279,190)"/>
<path d="M0 0 C0.66 0.33 1.32 0.66 2 1 C2.52289104 6.8825242 1.04449085 11.18313936 -1.125 16.64453125 C-2.11607519 18.8936804 -2.11607519 18.8936804 -2 21 C1.63 21.33 5.26 21.66 9 22 C9 22.33 9 22.66 9 23 C1.08 23 -6.84 23 -15 23 C-15 22.67 -15 22.34 -15 22 C-11.7 21.34 -8.4 20.68 -5 20 C-2.73516827 13.3672785 -0.85404425 6.97469469 0 0 Z " fill="#85A0A2" transform="translate(215,165)"/>
<path d="M0 0 C0.66 0 1.32 0 2 0 C2 1.32 2 2.64 2 4 C3.09957031 3.9278125 4.19914062 3.855625 5.33203125 3.78125 C13.56483868 3.25836933 21.74572826 2.83954979 30 3 C30 3.33 30 3.66 30 4 C21.24996282 5.6039348 12.89252296 6.26197285 4 6 C4 6.99 4 7.98 4 9 C3.34 9 2.68 9 2 9 C0.14223235 5.86501708 -0.20140476 3.62528568 0 0 Z " fill="#513056" transform="translate(254,200)"/>
<path d="M0 0 C0.66 0.33 1.32 0.66 2 1 C-2.14903481 3.96473177 -5.32078449 4.46051427 -10.375 4.6875 C-11.41043945 4.73765259 -11.41043945 4.73765259 -12.46679688 4.78881836 C-19.6419477 5.10244609 -26.8198836 5.09284633 -34 5 C-34 4.67 -34 4.34 -34 4 C-26.45493434 2.02096639 -19.4344296 1.84406427 -11.69018555 2.07421875 C-7.22098932 2.16889161 -4.13581457 1.89065809 0 0 Z " fill="#5F788E" transform="translate(212,240)"/>
<path d="M0 0 C1.34324341 0.06368774 1.34324341 0.06368774 2.71362305 0.12866211 C7.45163544 0.42820953 11.54495339 1.03194683 16 2.8125 C16 3.1425 16 3.4725 16 3.8125 C14.92363281 3.7403125 13.84726563 3.668125 12.73828125 3.59375 C-2.74911505 2.09026592 -2.74911505 2.09026592 -18 3.8125 C-20.33300933 3.85138349 -22.66709801 3.8573635 -25 3.8125 C-25 3.4825 -25 3.1525 -25 2.8125 C-16.47906083 0.27769961 -8.82858675 -0.43684516 0 0 Z " fill="#3A1F45" transform="translate(161,148.1875)"/>
<path d="M0 0 C2.31 0 4.62 0 7 0 C7 0.33 7 0.66 7 1 C5.35 1 3.7 1 2 1 C2 1.66 2 2.32 2 3 C1.34 3 0.68 3 0 3 C0 3.66 0 4.32 0 5 C-4.08020441 6.9442359 -7.3337717 7.23494474 -11.83203125 7.1953125 C-13.12431641 7.18886719 -14.41660156 7.18242187 -15.74804688 7.17578125 C-17.1028673 7.15907327 -18.45768501 7.14214342 -19.8125 7.125 C-21.18684251 7.11496003 -22.56119203 7.10583596 -23.93554688 7.09765625 C-27.29054317 7.07411242 -30.64518199 7.04122567 -34 7 C-34 6.67 -34 6.34 -34 6 C-28.06372979 4.69566381 -22.16667748 4.88913682 -16.125 4.9375 C-14.52011719 4.94426758 -14.52011719 4.94426758 -12.8828125 4.95117188 C-10.25515014 4.96290251 -7.62760462 4.97931772 -5 5 C-5 4.34 -5 3.68 -5 3 C-3.35 2.67 -1.7 2.34 0 2 C0 1.34 0 0.68 0 0 Z " fill="#6B7E72" transform="translate(212,236)"/>
<path d="M0 0 C6.93 0.495 6.93 0.495 14 1 C12 5 12 5 8.375 6.25 C7.26125 6.4975 6.1475 6.745 5 7 C3.35 4.69 1.7 2.38 0 0 Z " fill="#726484" transform="translate(197,187)"/>
<path d="M0 0 C0 0.66 0 1.32 0 2 C-0.60328125 2.19335938 -1.2065625 2.38671875 -1.828125 2.5859375 C-2.62734375 2.84632813 -3.4265625 3.10671875 -4.25 3.375 C-5.03890625 3.63023437 -5.8278125 3.88546875 -6.640625 4.1484375 C-8.99977558 4.94009044 -8.99977558 4.94009044 -11.09375 6.09375 C-13.75588187 7.35935367 -16.09640484 7.1319816 -19 7 C-19 6.34 -19 5.68 -19 5 C-16.77417611 4.15665671 -14.54503974 3.32521449 -12.3125 2.5 C-11.68666016 2.26152344 -11.06082031 2.02304688 -10.41601562 1.77734375 C-6.81807701 0.4587275 -3.83479747 -0.29329235 0 0 Z " fill="#59375D" transform="translate(206,201)"/>
<path d="M0 0 C0 0.33 0 0.66 0 1 C-0.6290625 1.15855469 -1.258125 1.31710938 -1.90625 1.48046875 C-10.4636293 3.81312787 -16.63315433 6.77540006 -22 14 C-22.66 14 -23.32 14 -24 14 C-21.25402806 7.25988705 -15.81969944 3.9574159 -9.515625 0.9375 C-6.09258978 -0.3381653 -3.6064851 -0.39200925 0 0 Z " fill="#4F3154" transform="translate(247,151)"/>
<path d="M0 0 C1.32 0.33 2.64 0.66 4 1 C4 1.66 4 2.32 4 3 C14.89 3 25.78 3 37 3 C37 3.33 37 3.66 37 4 C25.12 4 13.24 4 1 4 C0.67 2.68 0.34 1.36 0 0 Z " fill="#68456D" transform="translate(205,123)"/>
<path d="M0 0 C6 3 6 3 6.61328125 4.71484375 C7.06101134 7.36052154 7.16924506 9.87902317 7.1875 12.5625 C7.20167969 13.51253906 7.21585937 14.46257812 7.23046875 15.44140625 C7 18 7 18 5 21 C4.93941406 20.09636719 4.87882812 19.19273437 4.81640625 18.26171875 C4.73261719 17.08222656 4.64882813 15.90273437 4.5625 14.6875 C4.48128906 13.51574219 4.40007812 12.34398437 4.31640625 11.13671875 C3.8855892 6.8392126 3.8855892 6.8392126 1.4375 3.4375 C0.963125 2.963125 0.48875 2.48875 0 2 C0 1.34 0 0.68 0 0 Z " fill="#747488" transform="translate(297,157)"/>
<path d="M0 0 C0.99 0 1.98 0 3 0 C5.32590854 3.63423209 5.16265833 6.77088331 5 11 C4.01 11.33 3.02 11.66 2 12 C2 9.36 2 6.72 2 4 C-1.63 4.33 -5.26 4.66 -9 5 C-7 3 -7 3 -3.375 2.875 C-1.704375 2.936875 -1.704375 2.936875 0 3 C0 2.01 0 1.02 0 0 Z " fill="#5086A0" transform="translate(271,211)"/>
<path d="M0 0 C6.09324251 -0.0991667 12.00318593 -0.17328971 18 1 C18.33 1.33 18.66 1.66 19 2 C20.51469448 2.23192865 22.03754562 2.41215238 23.5625 2.5625 C24.80193359 2.68818359 24.80193359 2.68818359 26.06640625 2.81640625 C26.70449219 2.87699219 27.34257812 2.93757813 28 3 C28 3.33 28 3.66 28 4 C18.38299968 4.56081859 9.38346453 2.84809149 0 1 C0 0.67 0 0.34 0 0 Z " fill="#6C476E" transform="translate(154,332)"/>
<path d="M0 0 C0.66 0 1.32 0 2 0 C2.103125 0.639375 2.20625 1.27875 2.3125 1.9375 C2.539375 2.618125 2.76625 3.29875 3 4 C3.99 4.33 4.98 4.66 6 5 C5.67 5.66 5.34 6.32 5 7 C4.34 7 3.68 7 3 7 C2.67 7.99 2.34 8.98 2 10 C1.34 9.67 0.68 9.34 0 9 C0 8.34 0 7.68 0 7 C-1.32 6.67 -2.64 6.34 -4 6 C-4 5.34 -4 4.68 -4 4 C-2.68 4 -1.36 4 0 4 C0 2.68 0 1.36 0 0 Z " fill="#CACACA" transform="translate(329,20)"/>
<path d="M0 0 C7.85879863 0.35224909 14.65062002 1.13498747 22 4 C22 4.33 22 4.66 22 5 C14.04148714 4.45312208 7.16321574 3.69764268 0 0 Z " fill="#4B3955" transform="translate(182,152)"/>
<path d="M0 0 C6.95041086 -0.26618595 13.23514355 0.3879491 20 2 C20 2.33 20 2.66 20 3 C17.79173622 3.02722517 15.58337362 3.04649729 13.375 3.0625 C12.14523438 3.07410156 10.91546875 3.08570313 9.6484375 3.09765625 C6.32276209 3.00863924 3.25952412 2.63686087 0 2 C0 1.34 0 0.68 0 0 Z " fill="#513055" transform="translate(112,150)"/>
<path d="M0 0 C0.2475 0.61875 0.495 1.2375 0.75 1.875 C2.20628639 4.35068687 3.37812506 4.95125002 6 6 C5.071875 6.12375 5.071875 6.12375 4.125 6.25 C1.81562433 6.81258459 1.81562433 6.81258459 0.75 9.0625 C0.5025 9.701875 0.255 10.34125 0 11 C-0.12375 10.071875 -0.12375 10.071875 -0.25 9.125 C-0.81258459 6.81562433 -0.81258459 6.81562433 -3.0625 5.75 C-3.701875 5.5025 -4.34125 5.255 -5 5 C-3.68 4.67 -2.36 4.34 -1 4 C-0.67 2.68 -0.34 1.36 0 0 Z " fill="#DADADA" transform="translate(36,37)"/>
<path d="M0 0 C0.66 1.32 1.32 2.64 2 4 C3.32 4 4.64 4 6 4 C6 4.66 6 5.32 6 6 C4.68 6 3.36 6 2 6 C1.34 7.32 0.68 8.64 0 10 C-0.33 8.68 -0.66 7.36 -1 6 C-2.32 6 -3.64 6 -5 6 C-5 5.34 -5 4.68 -5 4 C-4.360625 3.71125 -3.72125 3.4225 -3.0625 3.125 C-0.84793921 2.17176549 -0.84793921 2.17176549 0 0 Z " fill="#D5D5D5" transform="translate(342,311)"/>
<path d="M0 0 C0.99 0 1.98 0 3 0 C3 1.32 3 2.64 3 4 C5.31 4.33 7.62 4.66 10 5 C10 5.33 10 5.66 10 6 C9.10796875 5.98839844 8.2159375 5.97679687 7.296875 5.96484375 C6.12640625 5.95582031 4.9559375 5.94679687 3.75 5.9375 C2.58984375 5.92589844 1.4296875 5.91429687 0.234375 5.90234375 C-2.40977128 5.98217908 -4.49826091 6.21356222 -7 7 C-7.33 5.68 -7.66 4.36 -8 3 C-5.03 3.33 -2.06 3.66 1 4 C0.67 2.68 0.34 1.36 0 0 Z " fill="#586266" transform="translate(168,178)"/>
<path d="M0 0 C4.29 0 8.58 0 13 0 C13.33 1.32 13.66 2.64 14 4 C8.84828377 4.09038099 4.08086796 3.84681133 -1 3 C-0.67 2.01 -0.34 1.02 0 0 Z " fill="#726681" transform="translate(172,150)"/>
<path d="M0 0 C0.66 0.33 1.32 0.66 2 1 C2 1.66 2 2.32 2 3 C3.32 3.33 4.64 3.66 6 4 C6 4.66 6 5.32 6 6 C4.68 6 3.36 6 2 6 C1.34 7.32 0.68 8.64 0 10 C-0.33 8.68 -0.66 7.36 -1 6 C-1.66 6 -2.32 6 -3 6 C-3 3 -3 3 -1.5 1.3125 C-0.7575 0.6628125 -0.7575 0.6628125 0 0 Z " fill="#D8D8D8" transform="translate(34,311)"/>
<path d="M0 0 C3.63 0 7.26 0 11 0 C11 0.66 11 1.32 11 2 C9.35 2 7.7 2 6 2 C5.67 2.99 5.34 3.98 5 5 C3.35 5 1.7 5 0 5 C0 3.35 0 1.7 0 0 Z " fill="#141414" transform="translate(263,167)"/>
<path d="M0 0 C0.66 0.33 1.32 0.66 2 1 C2.56131481 7.45512034 0.63463787 12.15439723 -2 18 C-3.30459087 13.78304781 -2.28430031 11.20965102 -1 7 C-0.63049535 4.67212073 -0.28647533 2.33954855 0 0 Z " fill="#7C9997" transform="translate(215,165)"/>
<path d="M0 0 C1.24523437 0.11988281 2.49046875 0.23976562 3.7734375 0.36328125 C4.71445312 0.47027344 5.65546875 0.57726562 6.625 0.6875 C6.625 1.0175 6.625 1.3475 6.625 1.6875 C5.32175781 1.74357422 5.32175781 1.74357422 3.9921875 1.80078125 C-4.63720784 2.27138911 -4.63720784 2.27138911 -12.375 5.6875 C-13.035 5.6875 -13.695 5.6875 -14.375 5.6875 C-13.375 2.6875 -13.375 2.6875 -10.7734375 0.98046875 C-6.8024014 -0.53035073 -4.20391766 -0.43625561 0 0 Z " fill="#889AA2" transform="translate(251.375,156.3125)"/>
<path d="M0 0 C2.45862401 -0.05383848 4.9160755 -0.09359038 7.375 -0.125 C8.42300781 -0.15013672 8.42300781 -0.15013672 9.4921875 -0.17578125 C11.32897486 -0.19344267 13.16601963 -0.10303261 15 0 C15.66 0.66 16.32 1.32 17 2 C8.585 2.495 8.585 2.495 0 3 C0 2.01 0 1.02 0 0 Z " fill="#472C4B" transform="translate(266,125)"/>
<path d="M0 0 C0.33 0.66 0.66 1.32 1 2 C6.94 2.33 12.88 2.66 19 3 C19 3.33 19 3.66 19 4 C15.56265937 4.08703823 12.12560163 4.14040272 8.6875 4.1875 C7.22280273 4.22520508 7.22280273 4.22520508 5.72851562 4.26367188 C4.32182617 4.27817383 4.32182617 4.27817383 2.88671875 4.29296875 C2.02264404 4.3086792 1.15856934 4.32438965 0.26831055 4.34057617 C-2.45018536 3.93240678 -3.30363829 3.10407096 -5 1 C-2 0 -2 0 0 0 Z " fill="#A27C63" transform="translate(159,239)"/>
<path d="M0 0 C1.65 0 3.3 0 5 0 C5 1.32 5 2.64 5 4 C4 5 4 5 1.4375 5.0625 C0.2309375 5.0315625 0.2309375 5.0315625 -1 5 C-0.67 3.35 -0.34 1.7 0 0 Z " fill="#E1E1E1" transform="translate(274,180)"/>
<path d="M0 0 C0 0.99 0 1.98 0 3 C-2.85478326 4.90318884 -4.41941308 5.4619099 -7.6875 6.125 C-8.49574219 6.29257813 -9.30398437 6.46015625 -10.13671875 6.6328125 C-10.75160156 6.75398437 -11.36648437 6.87515625 -12 7 C-9.7219796 3.58296941 -8.61627835 3.20348811 -4.875 1.8125 C-3.96492187 1.46832031 -3.05484375 1.12414062 -2.1171875 0.76953125 C-1.41851562 0.51558594 -0.71984375 0.26164063 0 0 Z " fill="#805985" transform="translate(241,153)"/>
<path d="M0 0 C0.66 0 1.32 0 2 0 C2.18451025 11.52164009 2.18451025 11.52164009 1 17 C0.67 17 0.34 17 0 17 C-1.14819277 11.1314592 -0.77313045 5.9114744 0 0 Z " fill="#7A507C" transform="translate(346,186)"/>
<path d="M0 0 C3.8063457 0.67170806 7.35206816 1.72746564 11 3 C11.33 2.01 11.66 1.02 12 0 C12 1.65 12 3.3 12 5 C10 6 10 6 6.875 5.0625 C5.92625 4.711875 4.9775 4.36125 4 4 C4 3.34 4 2.68 4 2 C2.68 1.34 1.36 0.68 0 0 Z " fill="#4D3558" transform="translate(205,157)"/>
<path d="M0 0 C1.1055189 0.93590504 2.20935453 1.87379858 3.3125 2.8125 C3.92738281 3.33457031 4.54226562 3.85664063 5.17578125 4.39453125 C8.51952278 7.3373102 8.51952278 7.3373102 10 9 C10 9.66 10 10.32 10 11 C6.8510285 9.63088196 4.9521513 8.1247864 2.75 5.5 C2.22921875 4.8915625 1.7084375 4.283125 1.171875 3.65625 C0 2 0 2 0 0 Z " fill="#7A507D" transform="translate(74,284)"/>
<path d="M0 0 C0.33 0.99 0.66 1.98 1 3 C-1.64 5.64 -4.28 8.28 -7 11 C-7.66 10.34 -8.32 9.68 -9 9 C-6.03 6.03 -3.06 3.06 0 0 Z " fill="#784F7B" transform="translate(306,283)"/>
<path d="M0 0 C1.2065625 0.0309375 1.2065625 0.0309375 2.4375 0.0625 C2.7675 2.0425 3.0975 4.0225 3.4375 6.0625 C2.4475 6.3925 1.4575 6.7225 0.4375 7.0625 C0.1075 7.7225 -0.2225 8.3825 -0.5625 9.0625 C-0.2325 6.7525 0.0975 4.4425 0.4375 2.0625 C-0.8825 1.7325 -2.2025 1.4025 -3.5625 1.0625 C-2.5625 0.0625 -2.5625 0.0625 0 0 Z " fill="#677E71" transform="translate(270.5625,214.9375)"/>
<path d="M0 0 C3.5 1 3.5 1 6 2 C6 2.33 6 2.66 6 3 C0.39 2.67 -5.22 2.34 -11 2 C-7.27367284 -0.48421811 -4.31338065 -0.42240263 0 0 Z " fill="#493253" transform="translate(171,149)"/>
<path d="M0 0 C3.47000311 1.1566677 3.84701459 1.85726716 5.6875 4.875 C6.12449219 5.57367188 6.56148437 6.27234375 7.01171875 6.9921875 C8 9 8 9 8 12 C4.74451247 8.97704729 2.31022942 5.79537691 0 2 C0 1.34 0 0.68 0 0 Z " fill="#422145" transform="translate(192,90)"/>
<path d="M0 0 C0.66 0 1.32 0 2 0 C2 1.32 2 2.64 2 4 C6.62 4 11.24 4 16 4 C16 4.33 16 4.66 16 5 C13.5211787 5.19389096 11.04219069 5.38040123 8.5625 5.5625 C7.50192383 5.64661133 7.50192383 5.64661133 6.41992188 5.73242188 C4.61572163 5.86190993 2.80768048 5.93521608 1 6 C0 5 0 5 -0.0625 2.4375 C-0.041875 1.633125 -0.02125 0.82875 0 0 Z " fill="#603E64" transform="translate(254,200)"/>
<path d="M0 0 C1.65 0 3.3 0 5 0 C5 1.65 5 3.3 5 5 C3.35 4.67 1.7 4.34 0 4 C0 2.68 0 1.36 0 0 Z " fill="#9A9A9A" transform="translate(195,352)"/>
<path d="M0 0 C1.32 0 2.64 0 4 0 C6.50178124 3.14509642 8.3826474 5.98720812 9 10 C8.67 9.34 8.34 8.68 8 8 C7.34 8 6.68 8 6 8 C5.7525 7.195625 5.505 6.39125 5.25 5.5625 C4.27761141 2.828919 4.27761141 2.828919 1.875 2.1875 C1.25625 2.125625 0.6375 2.06375 0 2 C0 1.34 0 0.68 0 0 Z " fill="#6B7C88" transform="translate(118,153)"/>
<path d="M0 0 C1.65 0 3.3 0 5 0 C5 1.32 5 2.64 5 4 C3.02 4 1.04 4 -1 4 C-0.67 2.68 -0.34 1.36 0 0 Z " fill="#D9D9D9" transform="translate(168,168)"/>
<path d="M0 0 C2.97 0 5.94 0 9 0 C9.33 0.66 9.66 1.32 10 2 C6.78548731 3.60725635 3.56387464 3.05748185 0 3 C0 2.01 0 1.02 0 0 Z " fill="#614063" transform="translate(242,150)"/>
<path d="M0 0 C0.66 0 1.32 0 2 0 C0.50902342 3.7952131 -1.75700849 5.61042731 -5 8 C-5.33 6.68 -5.66 5.36 -6 4 C-4.02 3.34 -2.04 2.68 0 2 C0 1.34 0 0.68 0 0 Z " fill="#528288" transform="translate(271,222)"/>
<path d="M0 0 C0.33 0.99 0.66 1.98 1 3 C-2.63 2.67 -6.26 2.34 -10 2 C-6.3558226 -0.4294516 -4.28758728 -0.16179575 0 0 Z " fill="#65818B" transform="translate(190,217)"/>
<path d="M0 0 C3.3125 -0.25 3.3125 -0.25 7 0 C8.9375 2 8.9375 2 10 4 C6.44219804 3.39009109 3.3171411 2.4216319 0 1 C0 0.67 0 0.34 0 0 Z " fill="#697283" transform="translate(288,155)"/>
<path d="M0 0 C2.52857178 2.96832339 3.42445229 5.16301525 4 9 C4.32483418 10.33542939 4.6550855 11.66961551 5 13 C2.53686261 11.17251097 1.16571382 9.77023784 0.51171875 6.73046875 C0.27481707 4.48520654 0.09638651 2.25544422 0 0 Z " fill="#2C1531" transform="translate(204,123)"/>
<path d="M0 0 C0.33 0.66 0.66 1.32 1 2 C0.01 2 -0.98 2 -2 2 C-2.33 2.99 -2.66 3.98 -3 5 C-3.33 4.34 -3.66 3.68 -4 3 C-6.52733235 2.34444881 -6.52733235 2.34444881 -9 2 C-9 1.67 -9 1.34 -9 1 C-4.545 0.505 -4.545 0.505 0 0 Z " fill="#8B5D92" transform="translate(262,235)"/>
<path d="M0 0 C-0.66 1.32 -1.32 2.64 -2 4 C-3.65 3.67 -5.3 3.34 -7 3 C-7 2.34 -7 1.68 -7 1 C-4 0 -4 0 0 0 Z " fill="#865988" transform="translate(211,188)"/>
<path d="M0 0 C1.32 0.33 2.64 0.66 4 1 C4 2.32 4 3.64 4 5 C2.68 5 1.36 5 0 5 C0 3.35 0 1.7 0 0 Z " fill="#D4D4D4" transform="translate(182,176)"/>
<path d="M0 0 C1.98 0.495 1.98 0.495 4 1 C4 1.99 4 2.98 4 4 C2.35 4 0.7 4 -1 4 C-0.67 2.68 -0.34 1.36 0 0 Z " fill="#C3C3C3" transform="translate(264,168)"/>
<path d="M0 0 C2.64 1.98 5.28 3.96 8 6 C7.01 6.33 6.02 6.66 5 7 C3.29115995 5.37660195 1.62553283 3.70680947 0 2 C0 1.34 0 0.68 0 0 Z " fill="#5D7A83" transform="translate(134,169)"/>
<path d="M0 0 C3.875 1.875 3.875 1.875 5 3 C5.04063832 4.66617115 5.042721 6.33388095 5 8 C2.5 5.6875 2.5 5.6875 0 3 C0 2.01 0 1.02 0 0 Z " fill="#7C8A94" transform="translate(297,157)"/>
</svg>
